<?xml version="1.0" encoding="UTF-8"?>
<svg version="1.1" xmlns="http://www.w3.org/2000/svg" width="500" height="500">
<path d="M0 0 C3.22940974 1.20045265 5.00129124 2.87337528 7.13671875 5.52734375 C7.99583862 6.58381104 7.99583862 6.58381104 8.87231445 7.66162109 C9.47132568 8.41266113 10.07033691 9.16370117 10.6875 9.9375 C11.62178833 11.09113037 11.62178833 11.09113037 12.57495117 12.26806641 C13.82068425 13.80680881 15.06366127 15.34778703 16.30371094 16.89111328 C18.45599663 19.56691118 20.63273869 22.22154497 22.8125 24.875 C24.20848429 26.58320998 25.60432044 28.29154103 27 30 C28.49985696 31.83345036 29.9998594 33.66678171 31.5 35.5 C34.5 39.16666667 37.5 42.83333333 40.5 46.5 C41.24894531 47.41523437 41.99789063 48.33046875 42.76953125 49.2734375 C44.20499935 51.02817784 45.63993796 52.78335155 47.07421875 54.5390625 C51.70323818 60.2034079 56.34813906 65.85440553 61 71.5 C66.34685204 77.98905001 71.68056318 84.48844833 77 91 C78.49985696 92.83345036 79.9998594 94.66678171 81.5 96.5 C96.5 114.83333333 111.5 133.16666667 126.5 151.5 C127.24894531 152.41523438 127.99789063 153.33046875 128.76953125 154.2734375 C130.20499935 156.02817784 131.63993796 157.78335155 133.07421875 159.5390625 C137.02546113 164.37403932 140.98745725 169.19977725 144.96020508 174.01708984 C150.70047435 180.97807659 156.41369983 187.95964627 162.09570312 194.96826172 C167.28985118 201.36943385 172.53259758 207.73011922 177.77734375 214.08984375 C181.17254781 218.2071362 184.55508325 222.33454848 187.9296875 226.46875 C189.34702117 228.20164098 190.76913708 229.9306285 192.1953125 231.65625 C194.47898015 234.42529649 196.74252678 237.20956514 199 240 C199.81597656 240.99644531 200.63195312 241.99289062 201.47265625 243.01953125 C222.15894721 268.70817989 230.43945023 299.20352863 228 332 C225.23572753 356.25412279 214.42023371 377.4669862 199 396 C198.31808594 396.87914062 197.63617188 397.75828125 196.93359375 398.6640625 C195.03703274 400.95526145 193.07780113 402.82895664 190.8125 404.75 C190.11769531 405.34296875 189.42289062 405.9359375 188.70703125 406.546875 C188.14371094 407.02640625 187.58039063 407.5059375 187 408 C186.67 408.33 186.34 408.66 186 409 C184.54263759 409.09803067 183.08052865 409.1263186 181.61987305 409.12698364 C180.66622706 409.12980724 179.71258108 409.13263084 178.73003674 409.13554001 C177.6679918 409.133512 176.60594687 409.13148399 175.51171875 409.12939453 C173.83008747 409.13197203 173.83008747 409.13197203 172.11448383 409.13460159 C168.30547533 409.13899195 164.49650928 409.13594487 160.6875 409.1328125 C158.64368981 409.13331906 156.59988111 409.13458973 154.55607134 409.13596261 C145.49955618 409.14198329 136.44306565 409.13565678 127.38655424 409.12713432 C124.21668694 409.12429947 121.04681932 409.12214061 117.87695152 409.11996174 C98.02065742 409.10603774 78.16441387 409.07532572 58.30815792 409.03445435 C48.47511483 409.01425228 38.64207408 408.99573358 28.809021 408.9810791 C5.65487991 408.94614295 -17.49911815 408.89681986 -40.65313911 408.81288338 C-50.99670872 408.7756249 -61.34020941 408.7443667 -71.68383789 408.72955322 C-80.57006204 408.71669565 -89.45611356 408.68980886 -98.34223908 408.64558756 C-102.90799641 408.62324489 -107.47354498 408.60704862 -112.03936195 408.60808182 C-155.05863304 408.60739154 -155.05863304 408.60739154 -174.3125 400.3125 C-175.54347412 399.79768066 -175.54347412 399.79768066 -176.79931641 399.27246094 C-205.4487345 386.92962932 -228.27499997 363.65850006 -239.95214844 334.63330078 C-241.86281421 329.48928183 -243.50579488 324.27888738 -245 319 C-245.25523437 318.10152344 -245.51046875 317.20304687 -245.7734375 316.27734375 C-247.71618939 308.06992093 -247.65251342 299.39454414 -248 291 C-244.68248407 289.34124203 -240.97402946 289.87110697 -237.32763672 289.88647461 C-236.43001617 289.88632858 -235.53239563 289.88618256 -234.60757446 289.8860321 C-231.63158782 289.88673047 -228.65566325 289.89451933 -225.6796875 289.90234375 C-223.61988357 289.9042082 -221.56007919 289.90563198 -219.50027466 289.90663147 C-214.07182598 289.91045452 -208.64340395 289.92028301 -203.21496582 289.93133545 C-197.67847046 289.94155412 -192.14197081 289.94613007 -186.60546875 289.95117188 C-175.73696744 289.96190545 -164.86848594 289.97897935 -154 290 C-154.5900029 289.42177994 -154.5900029 289.42177994 -155.19192505 288.83187866 C-157.00968858 287.04571856 -158.82124746 285.25338312 -160.6328125 283.4609375 C-161.2513208 282.85499756 -161.8698291 282.24905762 -162.50708008 281.62475586 C-184.5377665 259.76788156 -196.0779591 229.84424658 -196.375 199 C-196.29243669 186.79498867 -195.2518193 174.13621067 -190 163 C-184.99878052 163.5876866 -180.56603989 164.65115441 -175.77050781 166.26904297 C-175.08489777 166.49845581 -174.39928772 166.72786865 -173.69290161 166.9642334 C-171.44441085 167.7180294 -169.19884062 168.4801681 -166.953125 169.2421875 C-165.37543058 169.77227315 -163.79752559 170.30173246 -162.21942139 170.83059692 C-158.07256968 172.22172471 -153.92799839 173.61951513 -149.78405762 175.01928711 C-143.16768394 177.25353633 -136.54863267 179.47979537 -129.92818451 181.70193863 C-127.63253946 182.47388968 -125.33833371 183.25000275 -123.04425049 184.02658081 C-115.42384312 186.59570533 -107.7994942 189.02121284 -100 191 C-100.42410156 190.34257812 -100.84820312 189.68515625 -101.28515625 189.0078125 C-117.16232346 163.25539624 -122.69474391 131.59983374 -116.03125 101.93359375 C-112.2358249 86.86861775 -106.21165884 70.92130308 -96 59 C-90.72267236 60.63996636 -86.72515353 63.96709124 -82.375 67.25 C-80.67586368 68.51703764 -78.97664243 69.78396138 -77.27734375 71.05078125 C-76.40706543 71.70256348 -75.53678711 72.3543457 -74.64013672 73.02587891 C-70.41963677 76.18169198 -66.178928 79.30990491 -61.9375 82.4375 C-61.18968262 82.99147461 -60.44186523 83.54544922 -59.67138672 84.11621094 C-54.17967812 88.17271089 -48.60825789 92.10645253 -43 96 C-42.96559814 95.31188232 -42.93119629 94.62376465 -42.89575195 93.91479492 C-40.91684075 57.03954873 -29.9401392 26.40012654 -2 1 C-1.34 0.67 -0.68 0.34 0 0 Z " fill="#E3E1C3" transform="translate(258,46)"/>
<path d="M0 0 C0.97680662 -0.00259024 0.97680662 -0.00259024 1.97334671 -0.00523281 C4.206539 -0.0096621 6.43965786 -0.00658151 8.67285156 -0.00341797 C10.32137067 -0.00448398 11.9698896 -0.00587358 13.6184082 -0.0075531 C18.27043378 -0.01044336 22.92242656 -0.00579673 27.57444763 0.0006218 C30.57164554 0.00440484 33.56884023 0.00647078 36.56604004 0.00808716 C80.99342379 0.03587319 125.42050307 0.27703558 169.84713435 0.51966929 C175.61888211 0.55114395 181.39063364 0.58171867 187.16239047 0.61148286 C260.18695429 0.98848635 260.18695429 0.98848635 289.30716705 1.48524666 C291.39313805 1.52054161 293.47915316 1.55334816 295.56520844 1.58325005 C334.4728869 2.16187761 365.41676332 11.38032563 393.81347656 39.12939453 C397.81347656 43.75055494 397.81347656 43.75055494 397.81347656 46.12939453 C398.47347656 46.12939453 399.13347656 46.12939453 399.81347656 46.12939453 C400.14347656 47.44939453 400.47347656 48.76939453 400.81347656 50.12939453 C401.47347656 50.12939453 402.13347656 50.12939453 402.81347656 50.12939453 C405.08659645 53.28574474 406.89039848 56.75138625 408.81347656 60.12939453 C409.30203125 60.91314453 409.79058594 61.69689453 410.29394531 62.50439453 C417.88297174 75.20024572 423.81347656 92.19394152 423.81347656 107.12939453 C424.47347656 106.79939453 425.13347656 106.46939453 425.81347656 106.12939453 C426.20232695 107.91810631 426.57416852 109.71052327 426.93847656 111.50439453 C427.14730469 112.50212891 427.35613281 113.49986328 427.57128906 114.52783203 C427.65121094 115.38634766 427.73113281 116.24486328 427.81347656 117.12939453 C425.81347656 119.12939453 425.81347656 119.12939453 423.8196249 119.3782835 C422.99247006 119.37773873 422.16531523 119.37719397 421.31309509 119.37663269 C419.88056412 119.38293009 419.88056412 119.38293009 418.41909313 119.38935471 C417.36064347 119.38373142 416.30219381 119.37810814 415.21166992 119.37231445 C414.09043637 119.37417881 412.96920282 119.37604317 411.8139925 119.37796402 C408.01037026 119.3816416 404.20692699 119.37072013 400.40332031 119.35986328 C397.66046064 119.3580954 394.91760358 119.35923867 392.17474365 119.36012268 C385.41268706 119.36024797 378.65069498 119.34881275 371.88865864 119.33298069 C366.34110861 119.32001663 360.79356205 119.31024583 355.2460022 119.3026123 C337.13334161 119.2770779 319.02076391 119.23573929 300.90816176 119.18337369 C287.02804948 119.14341039 273.14794897 119.11433625 259.26779759 119.0919894 C239.23244086 119.05968429 219.19720263 119.01136601 199.16194248 118.94067287 C188.81774675 118.90441163 178.47361496 118.87395551 168.12936401 118.85922241 C159.2431975 118.84639769 150.35720438 118.81941949 141.47113717 118.77508241 C136.90541882 118.752679 132.33991009 118.73643376 127.77413177 118.73745918 C84.75478322 118.73676009 84.75478322 118.73676009 65.50097656 110.44189453 C64.68032715 110.09868164 63.85967773 109.75546875 63.01416016 109.40185547 C34.36474206 97.05902385 11.53847659 73.7878946 -0.13867188 44.76269531 C-2.04933765 39.61867636 -3.69231832 34.40828191 -5.18652344 29.12939453 C-5.569375 27.78167969 -5.569375 27.78167969 -5.95996094 26.40673828 C-7.90271282 18.19931546 -7.83903686 9.52393867 -8.18652344 1.12939453 C-5.3963928 -0.26567079 -3.12462977 0.002146 0 0 Z " fill="#F3CA97" transform="translate(18.1865234375,335.87060546875)"/>
<path d="M0 0 C0.91712769 -0.00014603 1.83425537 -0.00029205 2.7791748 -0.0004425 C5.82009216 0.00025591 8.86094877 0.00804499 11.90185547 0.01586914 C14.0064999 0.01773357 16.11114477 0.01915736 18.21578979 0.02015686 C23.76260572 0.02398004 29.30939557 0.03380865 34.85620117 0.04486084 C40.51334277 0.05507923 46.17048856 0.0596554 51.82763672 0.06469727 C62.93311694 0.07543108 74.03857779 0.09250513 85.14404297 0.11352539 C85.14404297 0.77352539 85.14404297 1.43352539 85.14404297 2.11352539 C39.10904297 2.60852539 39.10904297 2.60852539 -7.85595703 3.11352539 C-7.99210448 13.77863322 -7.99210448 13.77863322 -6.54345703 23.80102539 C-6.27404297 25.04754883 -6.00462891 26.29407227 -5.72705078 27.57836914 C-4.75958915 31.50461476 -3.63431777 35.34060326 -2.30908203 39.16040039 C-1.85595703 41.11352539 -1.85595703 41.11352539 -2.85595703 44.11352539 C-7.93742582 29.56733611 -10.21826517 16.51881829 -10.85595703 1.11352539 C-7.49450153 -0.56720236 -3.69608235 -0.0152429 0 0 Z " fill="#964D01" transform="translate(20.85595703125,335.886474609375)"/>
<path d="M0 0 C2.60598877 3.90898316 2.70354328 6.33080658 3 11 C1 13 1 13 -1.5106144 13.24609566 C-2.57805067 13.24425207 -3.64548695 13.24240849 -4.74526978 13.24050903 C-5.96807144 13.24325836 -7.19087311 13.24600769 -8.45072937 13.24884033 C-9.81301977 13.2417616 -11.17530919 13.23449197 -12.53759766 13.22705078 C-13.96644584 13.22648688 -15.39529461 13.22680282 -16.82414246 13.22793579 C-20.71031417 13.22851112 -24.59636316 13.21672775 -28.48250628 13.20278788 C-32.54109613 13.19031048 -36.5996886 13.18911239 -40.65829468 13.18673706 C-48.34706179 13.18051347 -56.03577224 13.16409081 -63.72451437 13.14403808 C-72.47650235 13.12170637 -81.228493 13.11069253 -89.98050237 13.10064721 C-107.98703374 13.07972531 -125.99351232 13.04453232 -144 13 C-144 12.67 -144 12.34 -144 12 C-96.48 12 -48.96 12 0 12 C0 8.04 0 4.08 0 0 Z " fill="#4E5B55" transform="translate(443,442)"/>
<path d="M0 0 C6.625 0.75 6.625 0.75 10 3 C6.23375329 4.25541557 4.62811066 3.37061958 1 2 C-1.51450654 10.43197858 -2.52024105 18.82159502 -3.25 27.5625 C-3.34200684 28.60204834 -3.43401367 29.64159668 -3.52880859 30.71264648 C-4.28496181 40.62293087 -3.58002456 50.15324954 -1.5625 59.875 C-1.31628906 61.08929688 -1.07007812 62.30359375 -0.81640625 63.5546875 C-0.07075992 66.99661182 -0.07075992 66.99661182 1.16015625 70.1953125 C2.01498699 73.05004957 2.05091057 74.26763252 1 77 C-7.51528453 55.34437792 -10.74766958 24.89099292 -1.39453125 2.95703125 C-0.93433594 1.98121094 -0.47414063 1.00539062 0 0 Z " fill="#B97D3E" transform="translate(68,209)"/>
<path d="M0 0 C2.60598877 3.90898316 2.70354328 6.33080658 3 11 C1 13 1 13 -1.17666626 13.24050903 C-2.07823456 13.23606781 -2.97980286 13.23162659 -3.90869141 13.22705078 C-4.92959869 13.22689972 -5.95050598 13.22674866 -7.00234985 13.22659302 C-8.66021011 13.21110916 -8.66021011 13.21110916 -10.3515625 13.1953125 C-11.4807309 13.1924826 -12.60989929 13.18965271 -13.77328491 13.18673706 C-17.39062971 13.17551462 -21.00772966 13.15040622 -24.625 13.125 C-27.0729131 13.11497287 -29.52083007 13.10584656 -31.96875 13.09765625 C-37.97925064 13.07556857 -43.98960783 13.04207074 -50 13 C-50 12.67 -50 12.34 -50 12 C-33.5 12 -17 12 0 12 C0 8.04 0 4.08 0 0 Z " fill="#517664" transform="translate(443,442)"/>
<path d="M0 0 C3.41284439 3.72219578 4.35840797 7.92996143 5.625 12.6875 C5.8415625 13.45255859 6.058125 14.21761719 6.28125 15.00585938 C8.39719889 22.75780792 9.32356943 30.02898936 8.5625 38.0625 C8.46066406 39.18785156 8.35882813 40.31320312 8.25390625 41.47265625 C8.17011719 42.30667969 8.08632813 43.14070313 8 44 C7.67 44 7.34 44 7 44 C6.96036133 43.4423999 6.92072266 42.8847998 6.87988281 42.31030273 C6.08209125 31.58309153 4.93943738 21.45985321 1.88671875 11.1328125 C0.82970761 7.39835023 0.31505948 3.85947862 0 0 Z " fill="#76DCAB" transform="translate(435,410)"/>
<path d="M0 0 C0.33 0.66 0.66 1.32 1 2 C-0.16048987 4.68082156 -1.38143511 7.26624651 -2.6875 9.875 C-6.83401102 18.41627302 -10.19184784 26.8585763 -12.125 36.1875 C-12.41375 37.445625 -12.7025 38.70375 -13 40 C-13.99 40.495 -13.99 40.495 -15 41 C-14.46248069 26.21821888 -7.21275228 12.5765503 0 0 Z " fill="#B4804A" transform="translate(157,112)"/>
<path d="M0 0 C3.78842672 3.53762495 6.4491663 7.00879678 9.125 11.5 C9.78757812 12.6034375 10.45015625 13.706875 11.1328125 14.84375 C11.74898438 15.8853125 12.36515625 16.926875 13 18 C13.57492187 18.8971875 14.14984375 19.794375 14.7421875 20.71875 C16 23 16 23 16 26 C16.66 26.33 17.32 26.66 18 27 C18 28.65 18 30.3 18 32 C15.32079826 30.66039913 15.34119384 29.54925317 14.375 26.75 C12.15651547 20.89049123 8.99417713 15.925296 5.609375 10.6875 C4 8 4 8 4 6 C3.34 6 2.68 6 2 6 C1.34 4.02 0.68 2.04 0 0 Z " fill="#A5E8C7" transform="translate(417,380)"/>
<path d="M0 0 C6.625 0.75 6.625 0.75 10 3 C6.23375329 4.25541557 4.62811066 3.37061958 1 2 C0.80664062 2.84304687 0.61328125 3.68609375 0.4140625 4.5546875 C0.02347656 6.19824219 0.02347656 6.19824219 -0.375 7.875 C-0.63023438 8.96554688 -0.88546875 10.05609375 -1.1484375 11.1796875 C-2 14 -2 14 -4 16 C-3.6083965 10.04492601 -2.62875405 5.37180176 0 0 Z " fill="#B05D08" transform="translate(68,209)"/>
<path d="M0 0 C4.10639379 7.7937678 2.83280023 15.47981298 2 24 C1.67 24 1.34 24 1 24 C0.40891367 15.98866917 -0.14101233 8.03770278 0 0 Z " fill="#60D79E" transform="translate(441,430)"/>
<path d="M0 0 C2.56616632 3.84924948 2.55097676 6.4349304 3 11 C2.01 11.33 1.02 11.66 0 12 C0 8.04 0 4.08 0 0 Z " fill="#15BF6D" transform="translate(443,442)"/>
<path d="M0 0 C2.475 0.99 2.475 0.99 5 2 C4.4225 2.0825 3.845 2.165 3.25 2.25 C0.3840696 3.20531013 -0.9990764 4.78469173 -3 7 C-3 3.48283697 -2.17554415 2.62878252 0 0 Z " fill="#B57939" transform="translate(162,105)"/>
<path d="M0 0 C0.66 0 1.32 0 2 0 C1.71872579 1.48117801 1.42466268 2.95993249 1.125 4.4375 C0.96257812 5.26121094 0.80015625 6.08492187 0.6328125 6.93359375 C0.31957031 7.95646484 0.31957031 7.95646484 0 9 C-0.99 9.495 -0.99 9.495 -2 10 C-1.85950482 8.52031676 -1.71245174 7.04125484 -1.5625 5.5625 C-1.48128906 4.73878906 -1.40007812 3.91507813 -1.31640625 3.06640625 C-1 1 -1 1 0 0 Z " fill="#C09263" transform="translate(144,143)"/>
</svg>
